<svg data-name="Layer 1" xmlns="http://www.w3.org/2000/svg" viewBox="0 0 133 38"><path d="M6.85 6.12h8.87l3.43 13.29 3.39-13.29h8.87V28h-5.52V11.3L21.63 28h-5l-4.25-16.7V28H6.85zm25.96 6.02h6.4l3.26 10.53 3-10.53h6L45.2 29a10.43 10.43 0 01-2.2 4 7 7 0 01-4.81 1.43 34.64 34.64 0 01-4.04-.43l-.48-4.23a9.58 9.58 0 002.92.42 2.86 2.86 0 001.73-.49 3.72 3.72 0 001.13-1.7zm20.02-6.02h6.75v16.46h10.53V28H52.83zm18.44 13.97a7.89 7.89 0 012.44-6 9.11 9.11 0 016.6-2.35q4.75 0 7.18 2.76a8 8 0 012 5.46A7.93 7.93 0 0187 26a9.25 9.25 0 01-6.7 2.34 9.37 9.37 0 01-6.16-1.94 7.78 7.78 0 01-2.87-6.31zm6.07 0a4.79 4.79 0 00.86 3.13 2.71 2.71 0 002.15 1 2.66 2.66 0 002.15-1 4.86 4.86 0 00.85-3.2A4.69 4.69 0 0082.5 17a2.66 2.66 0 00-2.1-1 2.73 2.73 0 00-2.19 1 4.71 4.71 0 00-.87 3.08zm25.26-7.95h5.68v15.64a6.65 6.65 0 01-.63 2.84A6 6 0 01106 32.8a6.58 6.58 0 01-2.69 1.2 17.09 17.09 0 01-3.7.37q-4.77 0-6.55-1.43a4.69 4.69 0 01-1.78-3.83v-.8l5.92.69a1.92 1.92 0 00.68 1.13 2.9 2.9 0 001.69.46 2.51 2.51 0 002-.7 3.55 3.55 0 00.65-2.44V25a5.95 5.95 0 01-4.81 2.28 6 6 0 01-5.12-2.77 8.82 8.82 0 01-1.39-5.2 8 8 0 011.79-5.63 6.07 6.07 0 014.68-1.94 6.5 6.5 0 013 .63 6.44 6.44 0 012.24 2.07zm-5.7 7.67a3.74 3.74 0 00.73 2.54 2.58 2.58 0 003.82 0 3.77 3.77 0 00.77-2.58 3.87 3.87 0 00-.81-2.65 2.5 2.5 0 00-2-.91 2.28 2.28 0 00-1.86.84 4.42 4.42 0 00-.65 2.76zm13.54.28a7.89 7.89 0 012.44-6 9.11 9.11 0 016.6-2.35q4.76 0 7.18 2.76a8 8 0 012 5.46 7.93 7.93 0 01-2.42 6 9.24 9.24 0 01-6.7 2.34 9.39 9.39 0 01-6.16-1.94 7.78 7.78 0 01-2.94-6.27zm6.07 0a4.79 4.79 0 00.86 3.13 2.81 2.81 0 004.31 0 4.93 4.93 0 00.84-3.2 4.69 4.69 0 00-.85-3.06 2.66 2.66 0 00-2.1-1 2.73 2.73 0 00-2.19 1 4.71 4.71 0 00-.87 3.12z" fill="#004abf"/></svg>