<svg id="Layer_1" data-name="Layer 1" xmlns="http://www.w3.org/2000/svg" viewBox="0 0 133 38"><defs><style>.cls-1{fill:#004abf;}</style></defs><title>logo</title><path class="cls-1" d="M6.85,6.12h8.87l3.43,13.29L22.54,6.12h8.87V28H25.89V11.3L21.63,28h-5L12.38,11.3V28H6.85Z"/><path class="cls-1" d="M32.81,12.14h6.4l3.26,10.53,3-10.53h6L45.2,29A10.43,10.43,0,0,1,43,33a7,7,0,0,1-4.81,1.43A34.64,34.64,0,0,1,34.15,34l-.48-4.23a9.58,9.58,0,0,0,2.92.42,2.86,2.86,0,0,0,1.73-.49A3.72,3.72,0,0,0,39.45,28Z"/><path class="cls-1" d="M52.83,6.12h6.75V22.58H70.11V28H52.83Z"/><path class="cls-1" d="M71.27,20.09a7.89,7.89,0,0,1,2.44-6,9.11,9.11,0,0,1,6.6-2.35q4.75,0,7.18,2.76a8,8,0,0,1,2,5.46A7.93,7.93,0,0,1,87,26a9.25,9.25,0,0,1-6.7,2.34,9.37,9.37,0,0,1-6.16-1.94A7.78,7.78,0,0,1,71.27,20.09Zm6.07,0a4.79,4.79,0,0,0,.86,3.13,2.71,2.71,0,0,0,2.15,1,2.66,2.66,0,0,0,2.15-1,4.86,4.86,0,0,0,.85-3.2A4.69,4.69,0,0,0,82.5,17a2.66,2.66,0,0,0-2.1-1,2.73,2.73,0,0,0-2.19,1A4.71,4.71,0,0,0,77.34,20.08Z"/><path class="cls-1" d="M102.6,12.14h5.68V27.78a6.65,6.65,0,0,1-.63,2.84A6,6,0,0,1,106,32.8,6.58,6.58,0,0,1,103.31,34a17.09,17.09,0,0,1-3.7.37q-4.77,0-6.55-1.43a4.69,4.69,0,0,1-1.78-3.83c0-.2,0-.47,0-.8L97.2,29a1.92,1.92,0,0,0,.68,1.13,2.9,2.9,0,0,0,1.69.46,2.51,2.51,0,0,0,2-.7,3.55,3.55,0,0,0,.65-2.44V25a5.95,5.95,0,0,1-4.81,2.28,6,6,0,0,1-5.12-2.77,8.82,8.82,0,0,1-1.39-5.2,8,8,0,0,1,1.79-5.63,6.07,6.07,0,0,1,4.68-1.94,6.5,6.5,0,0,1,3,.63,6.44,6.44,0,0,1,2.24,2.07Zm-5.7,7.67a3.74,3.74,0,0,0,.73,2.54,2.58,2.58,0,0,0,3.82,0,3.77,3.77,0,0,0,.77-2.58,3.87,3.87,0,0,0-.81-2.65,2.5,2.5,0,0,0-2-.91,2.28,2.28,0,0,0-1.86.84A4.42,4.42,0,0,0,96.9,19.81Z"/><path class="cls-1" d="M110.44,20.09a7.89,7.89,0,0,1,2.44-6,9.11,9.11,0,0,1,6.6-2.35q4.76,0,7.18,2.76a8,8,0,0,1,2,5.46,7.93,7.93,0,0,1-2.42,6,9.24,9.24,0,0,1-6.7,2.34,9.39,9.39,0,0,1-6.16-1.94A7.78,7.78,0,0,1,110.44,20.09Zm6.07,0a4.79,4.79,0,0,0,.86,3.13,2.81,2.81,0,0,0,4.31,0,4.93,4.93,0,0,0,.84-3.2,4.69,4.69,0,0,0-.85-3.06,2.66,2.66,0,0,0-2.1-1,2.73,2.73,0,0,0-2.19,1A4.71,4.71,0,0,0,116.51,20.08Z"/></svg>